<svg width="13" height="18" viewBox="0 0 13 18" fill="none" xmlns="http://www.w3.org/2000/svg">
<path d="M1.29907 17.9219C1.74438 17.9219 2.02563 17.7109 2.7522 16.9766L6.47095 13.2266C6.51782 13.1875 6.54907 13.1562 6.58813 13.1562C6.6272 13.1562 6.66626 13.1875 6.70532 13.2266L10.4241 16.9766C11.1428 17.7031 11.4319 17.9219 11.8772 17.9219C12.4631 17.9219 12.9397 17.5625 12.9397 16.7344V3.39062C12.9397 1.70312 12.0647 0.820312 10.3928 0.820312H2.78345C1.11157 0.820312 0.236572 1.70312 0.236572 3.39062V16.7344C0.236572 17.5625 0.713135 17.9219 1.29907 17.9219ZM1.98657 15.5391C1.88501 15.6484 1.79907 15.6094 1.79907 15.4609V3.49219C1.79907 2.76562 2.17407 2.375 2.92407 2.375H10.2522C11.01 2.375 11.385 2.76562 11.385 3.49219V15.4609C11.385 15.6094 11.2991 15.6406 11.1975 15.5391L7.08813 11.4453C6.90845 11.2656 6.74438 11.1953 6.58813 11.1953C6.43188 11.1953 6.27563 11.2656 6.08813 11.4453L1.98657 15.5391Z" fill="white"/>
</svg>
