<svg width="19" height="18" viewBox="0 0 19 18" fill="none" xmlns="http://www.w3.org/2000/svg">
<path d="M5.9375 17.0781C6.375 17.0781 6.70312 16.8594 7.25 16.3828L9.92188 14.0234H14.625C16.9766 14.0234 18.3047 12.6641 18.3047 10.3438V4.27344C18.3047 1.95312 16.9766 0.59375 14.625 0.59375H4.67188C2.32031 0.59375 0.992188 1.95312 0.992188 4.27344V10.3438C0.992188 12.6719 2.35938 14.0234 4.61719 14.0234H4.92969V15.9375C4.92969 16.6328 5.29688 17.0781 5.9375 17.0781ZM6.32031 15.3281V13.1016C6.32031 12.6406 6.125 12.4609 5.67969 12.4609H4.71875C3.25 12.4609 2.55469 11.7188 2.55469 10.2969V4.32031C2.55469 2.89844 3.25 2.15625 4.71875 2.15625H14.5781C16.0391 2.15625 16.7422 2.89844 16.7422 4.32031V10.2969C16.7422 11.7188 16.0391 12.4609 14.5781 12.4609H9.83594C9.35938 12.4609 9.13281 12.5391 8.79688 12.8828L6.32031 15.3281Z" fill="white"/>
</svg>
