<svg width="14" height="8" viewBox="0 0 14 8" fill="none" xmlns="http://www.w3.org/2000/svg">
<path d="M0.42334 1.0415C0.42334 1.22461 0.496582 1.38574 0.621094 1.51758L6.29736 7.31836C6.43652 7.45752 6.60498 7.53076 6.78809 7.53076C6.97852 7.53076 7.1543 7.45752 7.27881 7.31836L12.9478 1.51758C13.0796 1.39307 13.1528 1.22461 13.1528 1.0415C13.1528 0.660644 12.8599 0.367676 12.479 0.367676C12.3032 0.367676 12.1274 0.448242 12.0029 0.56543L6.78809 5.89014L1.57324 0.565429C1.44873 0.448242 1.28027 0.367675 1.09717 0.367675C0.716309 0.367675 0.42334 0.660644 0.42334 1.0415Z" fill="white" fill-opacity="0.4"/>
</svg>
