<svg width="17" height="11" viewBox="0 0 17 11" fill="none" xmlns="http://www.w3.org/2000/svg">
<path opacity="0.5" d="M8.70898 10.8555C13.5195 10.8555 16.7598 6.97656 16.7598 5.77539C16.7598 4.57422 13.5137 0.701172 8.70898 0.701172C3.96875 0.701172 0.652344 4.57422 0.652344 5.77539C0.652344 6.97656 3.96289 10.8555 8.70898 10.8555ZM8.70898 9.70703C4.9707 9.70703 2.01172 6.5957 2.01172 5.77539C2.01172 5.08984 4.9707 1.84961 8.70898 1.84961C12.4355 1.84961 15.4004 5.08984 15.4004 5.77539C15.4004 6.5957 12.4355 9.70703 8.70898 9.70703ZM8.70898 8.92188C10.4551 8.92188 11.8555 7.48633 11.8555 5.77539C11.8555 4.02344 10.4551 2.63477 8.70898 2.63477C6.95117 2.63477 5.54492 4.02344 5.55664 5.77539C5.5625 7.48633 6.95117 8.92188 8.70898 8.92188ZM8.70898 6.78906C8.14062 6.78906 7.68945 6.33203 7.68945 5.77539C7.68945 5.21875 8.14062 4.76172 8.70898 4.76172C9.26562 4.76172 9.72266 5.21875 9.72266 5.77539C9.72266 6.33203 9.26562 6.78906 8.70898 6.78906Z" fill="white"/>
</svg>
