<svg width="17" height="17" viewBox="0 0 17 17" fill="none" xmlns="http://www.w3.org/2000/svg">
<path d="M8.47656 16.4453C12.8984 16.4453 16.5547 12.7891 16.5547 8.36719C16.5547 3.9375 12.8906 0.28125 8.46875 0.28125C4.04688 0.28125 0.398438 3.9375 0.398438 8.36719C0.398438 12.7891 4.05469 16.4453 8.47656 16.4453ZM8.47656 14.8281C4.89062 14.8281 2.01562 11.9453 2.01562 8.36719C2.01562 4.78125 4.88281 1.89844 8.46875 1.89844C12.0547 1.89844 14.9375 4.78125 14.9453 8.36719C14.9453 11.9453 12.0625 14.8281 8.47656 14.8281ZM8.47656 4.32031C8.26562 4.32031 8.09375 4.40625 7.92188 4.58594L5.30469 7.23438C5.17969 7.36719 5.11719 7.51562 5.11719 7.71094C5.11719 8.07031 5.39062 8.33594 5.76562 8.33594C5.95312 8.33594 6.125 8.25781 6.23438 8.13281L7.14844 7.1875L7.84375 6.32031L7.77344 7.91406V11.7266C7.77344 12.125 8.07812 12.4062 8.47656 12.4062C8.88281 12.4062 9.17969 12.125 9.17969 11.7266V7.91406L9.10938 6.3125L9.8125 7.19531L10.7188 8.13281C10.8359 8.26562 11 8.33594 11.1953 8.33594C11.5625 8.33594 11.8438 8.07031 11.8438 7.71094C11.8438 7.51562 11.7812 7.36719 11.6484 7.23438L9.03906 4.58594C8.86719 4.41406 8.69531 4.32031 8.47656 4.32031Z" fill="white"/>
</svg>
